<svg xmlns="http://www.w3.org/2000/svg" width="1800" height="600" fill-rule="evenodd" clip-rule="evenodd"><path d="M1210.55 508.6h287.455" fill="none" fill-rule="nonzero" stroke="#565b73" stroke-width="4"/><path d="M1212.55 500.2l-16.8 8.4 16.8 8.4v-16.8z" fill="#565b73" fill-rule="nonzero"/><path d="M1625.5 447.979V228.435" fill="none" fill-rule="nonzero" stroke="#565b73" stroke-width="4"/><path d="M1617.1 445.979l8.4 16.8 8.4-16.8h-16.8z" fill="#565b73" fill-rule="nonzero"/><path d="M308.537 182.6H81.493" fill="none" fill-rule="nonzero" stroke="#565b73" stroke-width="4"/><path d="M306.537 191l16.8-8.4-16.8-8.4V191z" fill="#565b73" fill-rule="nonzero"/><path d="M1483.203 182.6H1165.67" fill="none" fill-rule="nonzero" stroke="#565b73" stroke-width="4"/><path d="M1481.2 191l16.8-8.4-16.8-8.4V191z" fill="#565b73" fill-rule="nonzero"/><path d="M895.87 182.6H578.337" fill="none" fill-rule="nonzero" stroke="#565b73" stroke-width="4"/><path d="M893.87 191l16.8-8.4-16.8-8.4V191z" fill="#565b73" fill-rule="nonzero"/><path d="M936.202 139.28h204.039c6.57 0 9.91 0 13.46 1.123a13.993 13.993 0 0 1 8.35 8.349c1.12 3.546 1.12 6.884 1.12 13.56v40.678c0 6.574 0 9.912-1.12 13.458a13.993 13.993 0 0 1-8.35 8.349c-3.55 1.123-6.89 1.123-13.56 1.123H936.1c-6.574 0-9.912 0-13.458-1.123a13.974 13.974 0 0 1-8.35-8.349c-1.122-3.546-1.122-6.884-1.122-13.56V162.21c0-6.574 0-9.912 1.123-13.458a13.974 13.974 0 0 1 8.349-8.349c3.546-1.123 6.884-1.123 13.559-1.123zM348.869 139.28h204.038c6.574 0 9.912 0 13.458 1.123a13.974 13.974 0 0 1 8.349 8.349c1.123 3.546 1.123 6.884 1.123 13.56v40.678c0 6.574 0 9.912-1.123 13.458a13.974 13.974 0 0 1-8.35 8.349c-3.545 1.123-6.883 1.123-13.56 1.123H348.768c-6.574 0-9.912 0-13.457-1.123a13.971 13.971 0 0 1-8.35-8.349c-1.123-3.546-1.123-6.884-1.123-13.56V162.21c0-6.574 0-9.912 1.124-13.458a13.971 13.971 0 0 1 8.349-8.349c3.545-1.123 6.883-1.123 13.559-1.123z" fill="#fff" fill-rule="nonzero" stroke="#048cff" stroke-width="5"/><path d="M635.254 162.027h218.5c3.84 0 7.059 0 9.992.75a14.189 14.189 0 0 1 9.83 9.831c.75 2.934.75 6.151.75 9.992 0 3.841 0 7.059-.75 9.992a14.189 14.189 0 0 1-9.83 9.831c-2.933.75-6.151.75-9.992.75h-218.5c-3.841 0-7.06 0-9.992-.75a14.189 14.189 0 0 1-9.831-9.831c-.75-2.933-.75-6.151-.75-9.992 0-3.841 0-7.058.75-9.992a14.189 14.189 0 0 1 9.83-9.831c2.934-.75 6.152-.75 9.993-.75z" fill="#e7e8e7" fill-rule="nonzero" stroke="#94979b" stroke-width="3"/><circle cx="31.813" cy="847.987" r="15" fill="#0d122b" stroke="#0d122b" stroke-width="4" transform="scale(-1 1) rotate(-45 -819.534 631.544)"/><path d="M138.41 162.027h128.01c3.842 0 7.059 0 9.992.75a14.192 14.192 0 0 1 9.832 9.831c.75 2.934.75 6.151.75 9.992 0 3.841 0 7.059-.75 9.992a14.192 14.192 0 0 1-9.832 9.831c-2.933.75-6.15.75-9.991.75H138.41c-3.841 0-7.058 0-9.992-.75a14.189 14.189 0 0 1-9.831-9.831c-.75-2.933-.75-6.151-.75-9.992 0-3.841 0-7.058.75-9.992a14.189 14.189 0 0 1 9.83-9.831c2.935-.75 6.152-.75 9.993-.75z" fill="#e7e8e7" fill-rule="nonzero" stroke="#94979b" stroke-width="3"/><path d="M1222.59 162.027h218.5c3.84 0 7.05 0 9.99.75a14.19 14.19 0 0 1 9.83 9.831c.75 2.934.75 6.151.75 9.992 0 3.841 0 7.059-.75 9.992a14.19 14.19 0 0 1-9.83 9.831c-2.94.75-6.15.75-9.99.75h-218.5c-3.84 0-7.06 0-10-.75a14.207 14.207 0 0 1-9.83-9.831c-.75-2.933-.75-6.151-.75-9.992 0-3.841 0-7.058.75-9.992a14.207 14.207 0 0 1 9.83-9.831c2.94-.75 6.16-.75 10-.75z" fill="#e7e8e7" fill-rule="nonzero"/><path d="M1222.583 162.026h218.5c3.841 0 7.058 0 9.992.75a14.189 14.189 0 0 1 9.831 9.831c.75 2.934.75 6.151.75 9.992 0 3.841 0 7.059-.75 9.992a14.189 14.189 0 0 1-9.831 9.831c-2.934.75-6.151.75-9.992.75h-218.5c-3.841 0-7.059 0-9.992-.75a14.189 14.189 0 0 1-9.831-9.831c-.75-2.933-.75-6.151-.75-9.992 0-3.841 0-7.058.75-9.992a14.189 14.189 0 0 1 9.831-9.831c2.933-.75 6.151-.75 9.992-.75z" fill="none" fill-rule="nonzero" stroke="#94979b" stroke-width="3"/><path d="M1523.54 139.28h204.03c6.58 0 9.92 0 13.46 1.123a13.968 13.968 0 0 1 8.35 8.349c1.12 3.546 1.12 6.884 1.12 13.56v40.678c0 6.574 0 9.912-1.12 13.458a13.968 13.968 0 0 1-8.35 8.349c-3.54 1.123-6.88 1.123-13.56 1.123h-204.04c-6.57 0-9.91 0-13.45-1.123a13.942 13.942 0 0 1-8.35-8.349c-1.13-3.546-1.13-6.884-1.13-13.56V162.21c0-6.574 0-9.912 1.13-13.458a13.942 13.942 0 0 1 8.35-8.349c3.54-1.123 6.88-1.123 13.56-1.123z" fill="#f5f5f5" fill-rule="nonzero"/><path d="M1523.532 139.279h204.038c6.574 0 9.912 0 13.458 1.124a13.967 13.967 0 0 1 8.348 8.349c1.124 3.545 1.124 6.883 1.124 13.559v40.679c0 6.574 0 9.912-1.124 13.458a13.966 13.966 0 0 1-8.348 8.348c-3.546 1.124-6.884 1.124-13.56 1.124H1523.43c-6.574 0-9.912 0-13.458-1.124a13.966 13.966 0 0 1-8.348-8.348c-1.124-3.546-1.124-6.884-1.124-13.56v-40.679c0-6.574 0-9.912 1.124-13.457a13.967 13.967 0 0 1 8.348-8.349c3.546-1.124 6.884-1.124 13.56-1.124z" fill="#fff" fill-rule="nonzero" stroke="#048cff" stroke-width="5"/><path d="M1523.54 465.28h204.03c6.58 0 9.92 0 13.46 1.123a13.968 13.968 0 0 1 8.35 8.349c1.12 3.546 1.12 6.884 1.12 13.56v40.677c0 6.574 0 9.912-1.12 13.458a13.968 13.968 0 0 1-8.35 8.35c-3.54 1.122-6.88 1.122-13.56 1.122h-204.04c-6.57 0-9.91 0-13.45-1.123a13.942 13.942 0 0 1-8.35-8.349c-1.13-3.546-1.13-6.884-1.13-13.56V488.21c0-6.574 0-9.912 1.13-13.458a13.942 13.942 0 0 1 8.35-8.349c3.54-1.123 6.88-1.123 13.56-1.123z" fill="#f5f5f5" fill-rule="nonzero"/><path d="M1523.532 465.279h204.038c6.574 0 9.912 0 13.458 1.124a13.967 13.967 0 0 1 8.348 8.349c1.124 3.545 1.124 6.883 1.124 13.559v40.679c0 6.574 0 9.912-1.124 13.458a13.966 13.966 0 0 1-8.348 8.348c-3.546 1.124-6.884 1.124-13.56 1.124H1523.43c-6.574 0-9.912 0-13.458-1.124a13.966 13.966 0 0 1-8.348-8.348c-1.124-3.546-1.124-6.884-1.124-13.56v-40.679c0-6.574 0-9.912 1.124-13.457a13.967 13.967 0 0 1 8.348-8.349c3.546-1.124 6.884-1.124 13.56-1.124zM1240.71 302.28h204.04c6.57 0 9.91 0 13.46 1.123a13.993 13.993 0 0 1 8.35 8.349c1.12 3.546 1.12 6.884 1.12 13.56v40.678c0 6.574 0 9.912-1.12 13.458a13.993 13.993 0 0 1-8.35 8.349c-3.55 1.123-6.89 1.123-13.56 1.123h-204.04c-6.57 0-9.91 0-13.46-1.123a13.993 13.993 0 0 1-8.35-8.349c-1.12-3.546-1.12-6.884-1.12-13.56V325.21c0-6.574 0-9.912 1.12-13.458a13.993 13.993 0 0 1 8.35-8.349c3.55-1.123 6.89-1.123 13.56-1.123z" fill="#fff" fill-rule="nonzero" stroke="#048cff" stroke-width="5"/><path d="M1386.399 288.759l1.335-1.489c32.008-34.086 68.795-59.881 110.359-77.385" fill="none" fill-rule="nonzero" stroke="#565b73" stroke-width="4"/><path d="M1381.48 281.663l-4.96 18.117 17.47-6.903-12.51-11.214z" fill="#565b73" fill-rule="nonzero"/><path d="M1484.615 475.213l-1.823-.824c-40.142-19.458-75.559-47.109-106.252-82.953" fill="none" fill-rule="nonzero" stroke="#565b73" stroke-width="4"/><path d="M1479.33 482.041l18.77-.727-11.85-14.579-6.92 15.306z" fill="#565b73" fill-rule="nonzero"/><circle cx="1146.07" cy="521.987" r="15" fill="#fff" stroke="#0d122b" stroke-width="4" transform="scale(-1 1) rotate(-45 -32.5 3321.611)"/><ellipse cx="1146.07" cy="521.987" rx="7.5" ry="7.5" fill="#0d122b" transform="scale(-1 1) rotate(-45.001 -32.498 3321.517)"/><path d="M642.536 465.28h204.038c6.574 0 9.912 0 13.457 1.123a13.969 13.969 0 0 1 8.349 8.349c1.124 3.546 1.124 6.884 1.124 13.56v40.677c0 6.574 0 9.912-1.124 13.458a13.969 13.969 0 0 1-8.35 8.35c-3.544 1.122-6.882 1.122-13.558 1.122H642.434c-6.574 0-9.912 0-13.458-1.123a13.97 13.97 0 0 1-8.348-8.349c-1.124-3.546-1.124-6.884-1.124-13.56V488.21c0-6.574 0-9.912 1.124-13.458a13.97 13.97 0 0 1 8.348-8.349c3.546-1.123 6.884-1.123 13.56-1.123z" fill="#fff" fill-rule="nonzero" stroke="#048cff" stroke-width="5"/><path d="M984.662 228.436c-166.317 129.127-327.612 129.127-483.883 0M511.181 127.394l1.546-1.268C664.439 5.399 821.876 8.951 985.044 136.779" fill="none" fill-rule="nonzero" stroke="#565b73" stroke-width="4"/><path d="M507.4 119.63l-7.663 17.149 18.317-4.158L507.4 119.63z" fill="#565b73" fill-rule="nonzero"/><path d="M599.905 26.913h289.198c3.84 0 7.058 0 9.992.75a14.189 14.189 0 0 1 9.83 9.831c.75 2.934.75 6.151.75 9.992 0 3.841 0 7.059-.75 9.992a14.172 14.172 0 0 1-9.83 9.828c-2.934.75-6.151.75-9.992.75H599.905c-3.841 0-7.06 0-9.992-.75a14.172 14.172 0 0 1-9.831-9.828c-.75-2.933-.75-6.151-.75-9.992 0-3.841 0-7.058.75-9.992a14.189 14.189 0 0 1 9.83-9.831c2.934-.75 6.152-.75 9.993-.75z" fill="#e7e8e7" fill-rule="nonzero" stroke="#94979b" stroke-width="3"/><path d="M744.586 325.988l-.055 121.991" fill="none" fill-rule="nonzero" stroke="#565b73" stroke-width="4"/><path d="M736.132 445.975l8.393 16.804 8.407-16.796-16.8-.008z" fill="#565b73" fill-rule="nonzero"/><path d="M872.004 508.6h274.945" fill="none" fill-rule="nonzero" stroke="#565b73" stroke-width="4"/><path d="M1144.95 517l16.8-8.4-16.8-8.4V517z" fill="#565b73" fill-rule="nonzero"/><path d="M599.905 364.913h289.198c3.84 0 7.058 0 9.992.75a14.189 14.189 0 0 1 9.83 9.831c.75 2.934.75 6.151.75 9.992 0 3.841 0 7.059-.75 9.992a14.189 14.189 0 0 1-9.83 9.831c-2.934.75-6.151.75-9.992.75H599.905c-3.841 0-7.06 0-9.992-.75a14.189 14.189 0 0 1-9.831-9.831c-.75-2.933-.75-6.151-.75-9.992 0-3.841 0-7.058.75-9.992a14.189 14.189 0 0 1 9.83-9.831c2.934-.75 6.152-.75 9.993-.75z" fill="#e7e8e7" fill-rule="nonzero" stroke="#94979b" stroke-width="3"/><path d="M961.562 193.587h2.886v-9.472h7.992l5.254 9.471h3.293l-5.624-9.916c3.515-1.11 5.587-4.143 5.587-7.732 0-4.588-2.997-8.251-8.695-8.251h-10.693v25.9zm2.886-11.766v-11.803h7.437c4.033 0 6.18 2.553 6.18 5.92s-2.036 5.883-6.18 5.883h-7.437zM993.345 194.03c3.96 0 7.104-2.405 7.733-5.809h-2.516c-.629 2.146-2.368 3.663-5.217 3.663-3.959 0-5.66-2.663-5.66-5.956v-.666h13.578v-2.812c0-4.662-2.627-8.251-8.029-8.251-5.328 0-8.25 3.403-8.25 8.546v3.034c0 5.106 3.44 8.251 8.361 8.251zm-5.66-11.507c0-3.478 1.48-6.179 5.55-6.179 3.7 0 5.401 2.516 5.401 5.883v.888h-10.952v-.592zM1013.362 194.03c4.44 0 7.696-2.442 7.696-5.809 0-2.738-1.739-4.18-4.662-4.884l-5.809-1.369c-1.369-.333-1.998-1.147-1.998-2.442 0-2.109 1.924-3.219 4.551-3.219 2.812 0 4.514 1.554 4.514 3.885v.111h2.553v-.185c0-3.515-3.07-5.92-7.03-5.92-4.18 0-7.178 1.85-7.178 5.402 0 2.48 1.628 4.181 4.44 4.81l5.624 1.295c1.517.333 2.368 1.295 2.368 2.627 0 2.442-2.109 3.59-5.032 3.59-3.108 0-5.328-1.555-5.328-3.923v-.11h-2.553v.184c0 3.663 3.256 5.957 7.844 5.957zM1033.305 194.03c3.96 0 7.104-2.405 7.733-5.809h-2.516c-.629 2.146-2.368 3.663-5.217 3.663-3.959 0-5.66-2.663-5.66-5.956v-.666h13.578v-2.812c0-4.662-2.627-8.251-8.029-8.251-5.328 0-8.25 3.403-8.25 8.546v3.034c0 5.106 3.44 8.251 8.361 8.251zm-5.66-11.507c0-3.478 1.48-6.179 5.55-6.179 3.7 0 5.401 2.516 5.401 5.883v.888h-10.952v-.592zM1046.37 193.587h2.811V184.3c0-4.774 2.294-7.142 5.883-7.142h.555v-2.626h-.444c-3.44 0-5.476 1.553-6.179 4.476v-4.366h-2.627v18.944zM1075.076 174.643h-2.775l-5.66 16.132-5.662-16.132h-2.775l6.956 18.944h2.96l6.956-18.944zM1086.026 194.03c3.96 0 7.104-2.405 7.733-5.809h-2.516c-.629 2.146-2.368 3.663-5.217 3.663-3.959 0-5.66-2.663-5.66-5.956v-.666h13.578v-2.812c0-4.662-2.627-8.251-8.029-8.251-5.328 0-8.25 3.403-8.25 8.546v3.034c0 5.106 3.44 8.251 8.361 8.251zm-5.66-11.507c0-3.478 1.48-6.179 5.55-6.179 3.7 0 5.401 2.516 5.401 5.883v.888h-10.952v-.592zM1112.335 166.577v10.878c-1.147-1.925-3.367-3.257-6.327-3.257-4.773 0-7.844 3.552-7.844 8.473v2.887c0 4.736 2.923 8.473 7.918 8.473 3.145 0 5.587-1.665 6.401-3.404v2.96h2.664v-27.01h-2.812zm-11.359 16.206c0-3.478 1.961-6.29 5.55-6.29 3.145 0 5.81 2.405 5.81 6.29v2.442c0 3.663-2.036 6.512-5.773 6.512-3.922 0-5.587-2.812-5.587-6.29v-2.664zM383.867 193.587h2.886v-9.398h7.252c5.439 0 8.806-3.626 8.806-8.288 0-4.663-3.367-8.215-8.806-8.215h-10.138v25.9zm2.886-11.803v-11.692h6.993c4.255 0 6.179 2.663 6.179 5.808s-1.924 5.883-6.18 5.883h-6.992zM414.392 194.03c3.959 0 7.104-2.405 7.733-5.809h-2.516c-.63 2.146-2.368 3.663-5.217 3.663-3.96 0-5.661-2.663-5.661-5.956v-.666h13.579v-2.812c0-4.662-2.627-8.251-8.03-8.251-5.327 0-8.25 3.403-8.25 8.546v3.034c0 5.106 3.44 8.251 8.362 8.251zm-5.661-11.507c0-3.478 1.48-6.179 5.55-6.179 3.7 0 5.402 2.516 5.402 5.883v.888H408.73v-.592zM427.453 193.587h2.812V182.45c0-3.922 2.368-5.81 5.476-5.81 3.404 0 4.847 2.184 4.847 5.403v11.544h2.812v-11.951c0-4.551-2.701-7.437-6.956-7.437-3.293 0-5.44 1.517-6.327 3.663v-3.22h-2.664v18.945zM462.455 166.577v10.878c-1.147-1.925-3.367-3.257-6.327-3.257-4.773 0-7.844 3.552-7.844 8.473v2.887c0 4.736 2.923 8.473 7.918 8.473 3.145 0 5.587-1.665 6.4-3.404v2.96h2.665v-27.01h-2.812zm-11.36 16.206c0-3.478 1.962-6.29 5.55-6.29 3.146 0 5.81 2.405 5.81 6.29v2.442c0 3.663-2.035 6.512-5.772 6.512-3.922 0-5.587-2.812-5.587-6.29v-2.664zM471.446 193.587h2.812v-18.944h-2.812v18.944zm-.37-23.94c0 1 .703 1.703 1.776 1.703s1.776-.703 1.776-1.702c0-1-.703-1.702-1.776-1.702s-1.776.703-1.776 1.702zM480.437 193.587h2.812V182.45c0-3.922 2.368-5.81 5.476-5.81 3.404 0 4.847 2.184 4.847 5.403v11.544h2.812v-11.951c0-4.551-2.701-7.437-6.956-7.437-3.293 0-5.44 1.517-6.327 3.663v-3.22h-2.664v18.945zM509.815 200.469c4.81 0 8.362-2.96 8.362-6.882v-18.944h-2.701v3.145c-.777-1.665-2.886-3.59-6.438-3.59-4.995 0-7.77 3.442-7.77 7.734v3.145c0 4.218 2.812 7.733 7.733 7.733 3.182 0 5.772-1.85 6.364-3.59v4.293c0 2.886-2.257 4.736-5.55 4.736-2.59 0-4.403-.814-5.44-2.627h-2.774c1.036 3.108 4.44 4.847 8.214 4.847zm-.26-9.953c-3.625 0-5.512-2.11-5.512-5.661v-2.701c0-3.626 1.924-5.661 5.624-5.661 3.256 0 5.698 2.627 5.698 5.846v2.442c0 3.589-2.59 5.735-5.81 5.735z" fill="#0d122b" fill-rule="nonzero"/><g><path d="M652.5 188.587h1.56v-5.12h4.32l2.84 5.12H663l-3.04-5.36c1.9-.6 3.02-2.24 3.02-4.18 0-2.48-1.62-4.46-4.7-4.46h-5.78v14zm1.56-6.36v-6.38h4.02c2.18 0 3.34 1.38 3.34 3.2 0 1.82-1.1 3.18-3.34 3.18h-4.02zM669.68 188.827c2.14 0 3.84-1.3 4.18-3.14h-1.36c-.34 1.16-1.28 1.98-2.82 1.98-2.14 0-3.06-1.44-3.06-3.22v-.36h7.34v-1.52c0-2.52-1.42-4.46-4.34-4.46-2.88 0-4.46 1.84-4.46 4.62v1.64c0 2.76 1.86 4.46 4.52 4.46zm-3.06-6.22c0-1.88.8-3.34 3-3.34 2 0 2.92 1.36 2.92 3.18v.48h-5.92v-.32zM680.5 188.827c2.4 0 4.16-1.32 4.16-3.14 0-1.48-.94-2.26-2.52-2.64l-3.14-.74c-.74-.18-1.08-.62-1.08-1.32 0-1.14 1.04-1.74 2.46-1.74 1.52 0 2.44.84 2.44 2.1v.06h1.38v-.1c0-1.9-1.66-3.2-3.8-3.2-2.26 0-3.88 1-3.88 2.92 0 1.34.88 2.26 2.4 2.6l3.04.7c.82.18 1.28.7 1.28 1.42 0 1.32-1.14 1.94-2.72 1.94-1.68 0-2.88-.84-2.88-2.12v-.06h-1.38v.1c0 1.98 1.76 3.22 4.24 3.22zM691.28 188.827c2.14 0 3.84-1.3 4.18-3.14h-1.36c-.34 1.16-1.28 1.98-2.82 1.98-2.14 0-3.06-1.44-3.06-3.22v-.36h7.34v-1.52c0-2.52-1.42-4.46-4.34-4.46-2.88 0-4.46 1.84-4.46 4.62v1.64c0 2.76 1.86 4.46 4.52 4.46zm-3.06-6.22c0-1.88.8-3.34 3-3.34 2 0 2.92 1.36 2.92 3.18v.48h-5.92v-.32zM698.34 188.587h1.52v-5.02c0-2.58 1.24-3.86 3.18-3.86h.3v-1.42h-.24c-1.86 0-2.96.84-3.34 2.42v-2.36h-1.42v10.24zM713.86 178.346h-1.5l-3.06 8.72-3.06-8.72h-1.5l3.76 10.24h1.6l3.76-10.24zM723.76 188.587v-6.8c0-2.02-1.52-3.68-4.06-3.68-2.02 0-3.46 1.04-3.98 2.74h1.4c.42-.94 1.26-1.54 2.56-1.54 1.64 0 2.56 1.08 2.56 2.48v1.9c-.58-.6-1.66-1.28-3.28-1.28-2.44 0-4.06 1.22-4.06 3.2 0 1.86 1.46 3.22 3.88 3.22 1.7 0 3.08-.8 3.52-1.52v1.28h1.46zm-4.66-.74c-1.58 0-2.76-.8-2.76-2.22 0-1.42 1.14-2.22 2.84-2.22 1.54 0 3.06.9 3.06 2.18 0 1.32-1.54 2.26-3.14 2.26zM731.64 188.587v-1.24h-1.02c-1.14 0-1.52-.44-1.52-1.48v-6.28h2.62v-1.24h-2.62v-2.94h-1.52v2.94h-1.74v1.24h1.74v6.28c0 1.74.82 2.72 2.78 2.72h1.28zM734.3 188.587h1.52v-10.24h-1.52v10.24zm-.2-12.94c0 .54.38.92.96.92s.96-.38.96-.92-.38-.92-.96-.92-.96.38-.96.92zM743.24 188.827c2.9 0 4.56-2 4.56-4.52v-1.68c0-2.52-1.66-4.52-4.56-4.52-2.9 0-4.58 2-4.58 4.52v1.68c0 2.52 1.66 4.52 4.58 4.52zm3.1-6.18v1.64c0 1.94-1.08 3.32-3.1 3.32s-3.1-1.38-3.1-3.32v-1.64c0-1.94 1.08-3.32 3.1-3.32s3.1 1.38 3.1 3.32zM750.54 188.587h1.52v-6.02c0-2.12 1.28-3.14 2.96-3.14 1.84 0 2.62 1.18 2.62 2.92v6.24h1.52v-6.46c0-2.46-1.46-4.02-3.76-4.02-1.78 0-2.94.82-3.42 1.98v-1.74h-1.44v10.24zM772.7 188.867c3.24 0 5.3-2.26 5.52-4.9h-1.5c-.24 1.92-1.52 3.6-4.04 3.6-2.86 0-4.24-2-4.24-4.74v-2.48c0-2.74 1.38-4.74 4.24-4.74 2.52 0 3.8 1.68 4.04 3.6h1.5c-.22-2.64-2.28-4.9-5.52-4.9-3.86 0-5.82 2.62-5.82 6.1v2.36c0 3.48 1.96 6.1 5.82 6.1zM781.12 188.587h1.52v-5.02c0-2.58 1.24-3.86 3.18-3.86h.3v-1.42h-.24c-1.86 0-2.96.84-3.34 2.42v-2.36h-1.42v10.24zM792.04 188.827c2.14 0 3.84-1.3 4.18-3.14h-1.36c-.34 1.16-1.28 1.98-2.82 1.98-2.14 0-3.06-1.44-3.06-3.22v-.36h7.34v-1.52c0-2.52-1.42-4.46-4.34-4.46-2.88 0-4.46 1.84-4.46 4.62v1.64c0 2.76 1.86 4.46 4.52 4.46zm-3.06-6.22c0-1.88.8-3.34 3-3.34 2 0 2.92 1.36 2.92 3.18v.48h-5.92v-.32zM807.44 188.587v-6.8c0-2.02-1.52-3.68-4.06-3.68-2.02 0-3.46 1.04-3.98 2.74h1.4c.42-.94 1.26-1.54 2.56-1.54 1.64 0 2.56 1.08 2.56 2.48v1.9c-.58-.6-1.66-1.28-3.28-1.28-2.44 0-4.06 1.22-4.06 3.2 0 1.86 1.46 3.22 3.88 3.22 1.7 0 3.08-.8 3.52-1.52v1.28h1.46zm-4.66-.74c-1.58 0-2.76-.8-2.76-2.22 0-1.42 1.14-2.22 2.84-2.22 1.54 0 3.06.9 3.06 2.18 0 1.32-1.54 2.26-3.14 2.26zM815.32 188.587v-1.24h-1.02c-1.14 0-1.52-.44-1.52-1.48v-6.28h2.62v-1.24h-2.62v-2.94h-1.52v2.94h-1.74v1.24h1.74v6.28c0 1.74.82 2.72 2.78 2.72h1.28zM821.8 188.827c2.14 0 3.84-1.3 4.18-3.14h-1.36c-.34 1.16-1.28 1.98-2.82 1.98-2.14 0-3.06-1.44-3.06-3.22v-.36h7.34v-1.52c0-2.52-1.42-4.46-4.34-4.46-2.88 0-4.46 1.84-4.46 4.62v1.64c0 2.76 1.86 4.46 4.52 4.46zm-3.06-6.22c0-1.88.8-3.34 3-3.34 2 0 2.92 1.36 2.92 3.18v.48h-5.92v-.32zM836.02 173.987v5.88c-.62-1.04-1.82-1.76-3.42-1.76-2.58 0-4.24 1.92-4.24 4.58v1.56c0 2.56 1.58 4.58 4.28 4.58 1.7 0 3.02-.9 3.46-1.84v1.6h1.44v-14.6h-1.52zm-6.14 8.76c0-1.88 1.06-3.4 3-3.4 1.7 0 3.14 1.3 3.14 3.4v1.32c0 1.98-1.1 3.52-3.12 3.52-2.12 0-3.02-1.52-3.02-3.4v-1.44z" fill="#0d122b" fill-rule="nonzero"/></g><g><path d="M147.52 188.587h1.56v-12.7h4.28v-1.3h-10.12v1.3h4.28v12.7zM161.9 188.587v-6.8c0-2.02-1.52-3.68-4.06-3.68-2.02 0-3.46 1.04-3.98 2.74h1.4c.42-.94 1.26-1.54 2.56-1.54 1.64 0 2.56 1.08 2.56 2.48v1.9c-.58-.6-1.66-1.28-3.28-1.28-2.44 0-4.06 1.22-4.06 3.2 0 1.86 1.46 3.22 3.88 3.22 1.7 0 3.08-.8 3.52-1.52v1.28h1.46zm-4.66-.74c-1.58 0-2.76-.8-2.76-2.22 0-1.42 1.14-2.22 2.84-2.22 1.54 0 3.06.9 3.06 2.18 0 1.32-1.54 2.26-3.14 2.26zM168.78 188.827c2.4 0 4.16-1.32 4.16-3.14 0-1.48-.94-2.26-2.52-2.64l-3.14-.74c-.74-.18-1.08-.62-1.08-1.32 0-1.14 1.04-1.74 2.46-1.74 1.52 0 2.44.84 2.44 2.1v.06h1.38v-.1c0-1.9-1.66-3.2-3.8-3.2-2.26 0-3.88 1-3.88 2.92 0 1.34.88 2.26 2.4 2.6l3.04.7c.82.18 1.28.7 1.28 1.42 0 1.32-1.14 1.94-2.72 1.94-1.68 0-2.88-.84-2.88-2.12v-.06h-1.38v.1c0 1.98 1.76 3.22 4.24 3.22zM175.54 188.587h1.52v-5.16l4.62 5.16h1.9l-4.88-5.3 4.68-4.94h-1.9l-4.42 4.82v-9.18h-1.52v14.6zM196.2 188.867c3.24 0 5.3-2.26 5.52-4.9h-1.5c-.24 1.92-1.52 3.6-4.04 3.6-2.86 0-4.24-2-4.24-4.74v-2.48c0-2.74 1.38-4.74 4.24-4.74 2.52 0 3.8 1.68 4.04 3.6h1.5c-.22-2.64-2.28-4.9-5.52-4.9-3.86 0-5.82 2.62-5.82 6.1v2.36c0 3.48 1.96 6.1 5.82 6.1zM204.62 188.587h1.52v-5.02c0-2.58 1.24-3.86 3.18-3.86h.3v-1.42h-.24c-1.86 0-2.96.84-3.34 2.42v-2.36h-1.42v10.24zM215.54 188.827c2.14 0 3.84-1.3 4.18-3.14h-1.36c-.34 1.16-1.28 1.98-2.82 1.98-2.14 0-3.06-1.44-3.06-3.22v-.36h7.34v-1.52c0-2.52-1.42-4.46-4.34-4.46-2.88 0-4.46 1.84-4.46 4.62v1.64c0 2.76 1.86 4.46 4.52 4.46zm-3.06-6.22c0-1.88.8-3.34 3-3.34 2 0 2.92 1.36 2.92 3.18v.48h-5.92v-.32zM230.94 188.587v-6.8c0-2.02-1.52-3.68-4.06-3.68-2.02 0-3.46 1.04-3.98 2.74h1.4c.42-.94 1.26-1.54 2.56-1.54 1.64 0 2.56 1.08 2.56 2.48v1.9c-.58-.6-1.66-1.28-3.28-1.28-2.44 0-4.06 1.22-4.06 3.2 0 1.86 1.46 3.22 3.88 3.22 1.7 0 3.08-.8 3.52-1.52v1.28h1.46zm-4.66-.74c-1.58 0-2.76-.8-2.76-2.22 0-1.42 1.14-2.22 2.84-2.22 1.54 0 3.06.9 3.06 2.18 0 1.32-1.54 2.26-3.14 2.26zM238.82 188.587v-1.24h-1.02c-1.14 0-1.52-.44-1.52-1.48v-6.28h2.62v-1.24h-2.62v-2.94h-1.52v2.94h-1.74v1.24h1.74v6.28c0 1.74.82 2.72 2.78 2.72h1.28zM245.3 188.827c2.14 0 3.84-1.3 4.18-3.14h-1.36c-.34 1.16-1.28 1.98-2.82 1.98-2.14 0-3.06-1.44-3.06-3.22v-.36h7.34v-1.52c0-2.52-1.42-4.46-4.34-4.46-2.88 0-4.46 1.84-4.46 4.62v1.64c0 2.76 1.86 4.46 4.52 4.46zm-3.06-6.22c0-1.88.8-3.34 3-3.34 2 0 2.92 1.36 2.92 3.18v.48h-5.92v-.32zM259.52 173.987v5.88c-.62-1.04-1.82-1.76-3.42-1.76-2.58 0-4.24 1.92-4.24 4.58v1.56c0 2.56 1.58 4.58 4.28 4.58 1.7 0 3.02-.9 3.46-1.84v1.6h1.44v-14.6h-1.52zm-6.14 8.76c0-1.88 1.06-3.4 3-3.4 1.7 0 3.14 1.3 3.14 3.4v1.32c0 1.98-1.1 3.52-3.12 3.52-2.12 0-3.02-1.52-3.02-3.4v-1.44z" fill="#0d122b" fill-rule="nonzero"/></g><g><path d="M1231.5 188.587h1.56v-5.12h4.32l2.84 5.12h1.78l-3.04-5.36c1.9-.6 3.02-2.24 3.02-4.18 0-2.48-1.62-4.46-4.7-4.46h-5.78v14zm1.56-6.36v-6.38h4.02c2.18 0 3.34 1.38 3.34 3.2 0 1.82-1.1 3.18-3.34 3.18h-4.02zM1248.68 188.827c2.14 0 3.84-1.3 4.18-3.14h-1.36c-.34 1.16-1.28 1.98-2.82 1.98-2.14 0-3.06-1.44-3.06-3.22v-.36h7.34v-1.52c0-2.52-1.42-4.46-4.34-4.46-2.88 0-4.46 1.84-4.46 4.62v1.64c0 2.76 1.86 4.46 4.52 4.46zm-3.06-6.22c0-1.88.8-3.34 3-3.34 2 0 2.92 1.36 2.92 3.18v.48h-5.92v-.32zM1259.5 188.827c2.4 0 4.16-1.32 4.16-3.14 0-1.48-.94-2.26-2.52-2.64l-3.14-.74c-.74-.18-1.08-.62-1.08-1.32 0-1.14 1.04-1.74 2.46-1.74 1.52 0 2.44.84 2.44 2.1v.06h1.38v-.1c0-1.9-1.66-3.2-3.8-3.2-2.26 0-3.88 1-3.88 2.92 0 1.34.88 2.26 2.4 2.6l3.04.7c.82.18 1.28.7 1.28 1.42 0 1.32-1.14 1.94-2.72 1.94-1.68 0-2.88-.84-2.88-2.12v-.06h-1.38v.1c0 1.98 1.76 3.22 4.24 3.22zM1270.28 188.827c2.14 0 3.84-1.3 4.18-3.14h-1.36c-.34 1.16-1.28 1.98-2.82 1.98-2.14 0-3.06-1.44-3.06-3.22v-.36h7.34v-1.52c0-2.52-1.42-4.46-4.34-4.46-2.88 0-4.46 1.84-4.46 4.62v1.64c0 2.76 1.86 4.46 4.52 4.46zm-3.06-6.22c0-1.88.8-3.34 3-3.34 2 0 2.92 1.36 2.92 3.18v.48h-5.92v-.32zM1277.34 188.587h1.52v-5.02c0-2.58 1.24-3.86 3.18-3.86h.3v-1.42h-.24c-1.86 0-2.96.84-3.34 2.42v-2.36h-1.42v10.24zM1292.86 178.346h-1.5l-3.06 8.72-3.06-8.72h-1.5l3.76 10.24h1.6l3.76-10.24zM1302.76 188.587v-6.8c0-2.02-1.52-3.68-4.06-3.68-2.02 0-3.46 1.04-3.98 2.74h1.4c.42-.94 1.26-1.54 2.56-1.54 1.64 0 2.56 1.08 2.56 2.48v1.9c-.58-.6-1.66-1.28-3.28-1.28-2.44 0-4.06 1.22-4.06 3.2 0 1.86 1.46 3.22 3.88 3.22 1.7 0 3.08-.8 3.52-1.52v1.28h1.46zm-4.66-.74c-1.58 0-2.76-.8-2.76-2.22 0-1.42 1.14-2.22 2.84-2.22 1.54 0 3.06.9 3.06 2.18 0 1.32-1.54 2.26-3.14 2.26zM1310.64 188.587v-1.24h-1.02c-1.14 0-1.52-.44-1.52-1.48v-6.28h2.62v-1.24h-2.62v-2.94h-1.52v2.94h-1.74v1.24h1.74v6.28c0 1.74.82 2.72 2.78 2.72h1.28zM1313.3 188.587h1.52v-10.24h-1.52v10.24zm-.2-12.94c0 .54.38.92.96.92s.96-.38.96-.92-.38-.92-.96-.92-.96.38-.96.92zM1322.24 188.827c2.9 0 4.56-2 4.56-4.52v-1.68c0-2.52-1.66-4.52-4.56-4.52-2.9 0-4.58 2-4.58 4.52v1.68c0 2.52 1.66 4.52 4.58 4.52zm3.1-6.18v1.64c0 1.94-1.08 3.32-3.1 3.32s-3.1-1.38-3.1-3.32v-1.64c0-1.94 1.08-3.32 3.1-3.32s3.1 1.38 3.1 3.32zM1329.54 188.587h1.52v-6.02c0-2.12 1.28-3.14 2.96-3.14 1.84 0 2.62 1.18 2.62 2.92v6.24h1.52v-6.46c0-2.46-1.46-4.02-3.76-4.02-1.78 0-2.94.82-3.42 1.98v-1.74h-1.44v10.24zM1352.06 174.587h-1.56l-5.26 14h1.54l1.26-3.56h6.46l1.28 3.56h1.54l-5.26-14zm-.78 1.42l2.78 7.78h-5.58l2.8-7.78zM1363.54 188.827c2.58 0 4.26-1.68 4.38-3.84h-1.36c-.2 1.38-1.06 2.64-3 2.64-2.1 0-3.08-1.36-3.08-3.28v-1.76c0-1.92.98-3.28 3.08-3.28 1.94 0 2.8 1.26 3 2.64h1.36c-.12-2.16-1.8-3.84-4.38-3.84-2.84 0-4.54 1.92-4.54 4.5v1.72c0 2.58 1.7 4.5 4.54 4.5zM1374.74 188.827c2.58 0 4.26-1.68 4.38-3.84h-1.36c-.2 1.38-1.06 2.64-3 2.64-2.1 0-3.08-1.36-3.08-3.28v-1.76c0-1.92.98-3.28 3.08-3.28 1.94 0 2.8 1.26 3 2.64h1.36c-.12-2.16-1.8-3.84-4.38-3.84-2.84 0-4.54 1.92-4.54 4.5v1.72c0 2.58 1.7 4.5 4.54 4.5zM1385.92 188.827c2.14 0 3.84-1.3 4.18-3.14h-1.36c-.34 1.16-1.28 1.98-2.82 1.98-2.14 0-3.06-1.44-3.06-3.22v-.36h7.34v-1.52c0-2.52-1.42-4.46-4.34-4.46-2.88 0-4.46 1.84-4.46 4.62v1.64c0 2.76 1.86 4.46 4.52 4.46zm-3.06-6.22c0-1.88.8-3.34 3-3.34 2 0 2.92 1.36 2.92 3.18v.48h-5.92v-.32zM1394.5 192.066v-5c.62 1.04 1.82 1.76 3.42 1.76 2.58 0 4.24-1.92 4.24-4.58v-1.56c0-2.6-1.54-4.58-4.28-4.58-1.7 0-3.02.9-3.46 1.84v-1.6h-1.44v13.72h1.52zm6.14-7.88c0 1.88-1.06 3.4-3 3.4-1.7 0-3.14-1.3-3.14-3.4v-1.32c0-1.98 1.1-3.52 3.12-3.52 2.12 0 3.02 1.52 3.02 3.4v1.44zM1409.6 188.587v-1.24h-1.02c-1.14 0-1.52-.44-1.52-1.48v-6.28h2.62v-1.24h-2.62v-2.94h-1.52v2.94h-1.74v1.24h1.74v6.28c0 1.74.82 2.72 2.78 2.72h1.28zM1416.08 188.827c2.14 0 3.84-1.3 4.18-3.14h-1.36c-.34 1.16-1.28 1.98-2.82 1.98-2.14 0-3.06-1.44-3.06-3.22v-.36h7.34v-1.52c0-2.52-1.42-4.46-4.34-4.46-2.88 0-4.46 1.84-4.46 4.62v1.64c0 2.76 1.86 4.46 4.52 4.46zm-3.06-6.22c0-1.88.8-3.34 3-3.34 2 0 2.92 1.36 2.92 3.18v.48h-5.92v-.32zM1430.3 173.987v5.88c-.62-1.04-1.82-1.76-3.42-1.76-2.58 0-4.24 1.92-4.24 4.58v1.56c0 2.56 1.58 4.58 4.28 4.58 1.7 0 3.02-.9 3.46-1.84v1.6h1.44v-14.6h-1.52zm-6.14 8.76c0-1.88 1.06-3.4 3-3.4 1.7 0 3.14 1.3 3.14 3.4v1.32c0 1.98-1.1 3.52-3.12 3.52-2.12 0-3.02-1.52-3.02-3.4v-1.44z" fill="#0d122b" fill-rule="nonzero"/></g><g><path d="M1559.795 167.686h-2.886l-9.731 25.9h2.849l2.33-6.586h11.952l2.368 6.586h2.849l-9.731-25.9zm-1.443 2.627l5.143 14.394h-10.323l5.18-14.393zM1580.805 194.03c4.44 0 7.696-2.442 7.696-5.809 0-2.738-1.74-4.18-4.662-4.884l-5.81-1.369c-1.368-.333-1.997-1.147-1.997-2.442 0-2.109 1.924-3.219 4.55-3.219 2.813 0 4.515 1.554 4.515 3.885v.111h2.553v-.185c0-3.515-3.071-5.92-7.03-5.92-4.181 0-7.178 1.85-7.178 5.402 0 2.48 1.628 4.181 4.44 4.81l5.624 1.295c1.517.333 2.368 1.295 2.368 2.627 0 2.442-2.11 3.59-5.032 3.59-3.108 0-5.328-1.555-5.328-3.923v-.11h-2.553v.184c0 3.663 3.256 5.957 7.844 5.957zM1600.275 194.03c4.44 0 7.696-2.442 7.696-5.809 0-2.738-1.74-4.18-4.662-4.884l-5.81-1.369c-1.368-.333-1.997-1.147-1.997-2.442 0-2.109 1.924-3.219 4.55-3.219 2.813 0 4.515 1.554 4.515 3.885v.111h2.553v-.185c0-3.515-3.071-5.92-7.03-5.92-4.181 0-7.178 1.85-7.178 5.402 0 2.48 1.628 4.181 4.44 4.81l5.624 1.295c1.517.333 2.368 1.295 2.368 2.627 0 2.442-2.11 3.59-5.032 3.59-3.108 0-5.328-1.555-5.328-3.923v-.11h-2.553v.184c0 3.663 3.256 5.957 7.844 5.957zM1612.964 193.587h2.812v-18.944h-2.812v18.944zm-.37-23.94c0 1 .703 1.703 1.776 1.703s1.776-.703 1.776-1.702c0-1-.703-1.702-1.776-1.702s-1.776.703-1.776 1.702zM1629.57 200.469c4.81 0 8.363-2.96 8.363-6.882v-18.944h-2.701v3.145c-.777-1.665-2.886-3.59-6.438-3.59-4.995 0-7.77 3.442-7.77 7.734v3.145c0 4.218 2.812 7.733 7.733 7.733 3.182 0 5.772-1.85 6.364-3.59v4.293c0 2.886-2.257 4.736-5.55 4.736-2.59 0-4.403-.814-5.44-2.627h-2.774c1.036 3.108 4.44 4.847 8.214 4.847zm-.258-9.953c-3.626 0-5.513-2.11-5.513-5.661v-2.701c0-3.626 1.924-5.661 5.624-5.661 3.256 0 5.698 2.627 5.698 5.846v2.442c0 3.589-2.59 5.735-5.81 5.735zM1643.929 193.587h2.812V182.45c0-3.922 2.368-5.81 5.476-5.81 3.404 0 4.847 2.184 4.847 5.403v11.544h2.812v-11.951c0-4.551-2.701-7.437-6.956-7.437-3.293 0-5.44 1.517-6.327 3.663v-3.22h-2.664v18.945zM1673.126 194.03c3.959 0 7.104-2.405 7.733-5.809h-2.516c-.63 2.146-2.368 3.663-5.217 3.663-3.96 0-5.661-2.663-5.661-5.956v-.666h13.579v-2.812c0-4.662-2.627-8.251-8.03-8.251-5.327 0-8.25 3.403-8.25 8.546v3.034c0 5.106 3.44 8.251 8.362 8.251zm-5.661-11.507c0-3.478 1.48-6.179 5.55-6.179 3.7 0 5.402 2.516 5.402 5.883v.888h-10.952v-.592zM1699.435 166.577v10.878c-1.147-1.925-3.367-3.257-6.327-3.257-4.773 0-7.844 3.552-7.844 8.473v2.887c0 4.736 2.923 8.473 7.918 8.473 3.145 0 5.587-1.665 6.4-3.404v2.96h2.665v-27.01h-2.812zm-11.36 16.206c0-3.478 1.962-6.29 5.55-6.29 3.146 0 5.81 2.405 5.81 6.29v2.442c0 3.663-2.035 6.512-5.772 6.512-3.922 0-5.587-2.812-5.587-6.29v-2.664z" fill="#0d122b" fill-rule="nonzero"/></g><g><path d="M1544.254 520.105c5.994 0 9.805-4.181 10.212-9.065h-2.775c-.444 3.552-2.812 6.66-7.474 6.66-5.291 0-7.844-3.7-7.844-8.77v-4.587c0-5.07 2.553-8.77 7.844-8.77 4.662 0 7.03 3.109 7.474 6.66h2.775c-.407-4.883-4.218-9.064-10.212-9.064-7.141 0-10.767 4.847-10.767 11.285v4.366c0 6.438 3.626 11.285 10.767 11.285zM1567.372 520.03c5.365 0 8.436-3.7 8.436-8.362v-3.108c0-4.662-3.071-8.362-8.436-8.362s-8.473 3.7-8.473 8.362v3.108c0 4.662 3.07 8.362 8.473 8.362zm5.735-11.433v3.034c0 3.59-1.998 6.142-5.735 6.142s-5.735-2.553-5.735-6.142v-3.033c0-3.59 1.998-6.142 5.735-6.142s5.735 2.553 5.735 6.142zM1580.884 519.587h2.812V508.45c0-3.922 2.294-5.81 5.402-5.81s4.699 2.183 4.699 5.402v11.544h2.812V508.45c0-3.922 2.294-5.809 5.402-5.809s4.699 2.183 4.699 5.402v11.544h2.812v-11.95c0-4.478-2.664-7.438-6.808-7.438-3.293 0-5.587 1.48-6.882 3.7-1.073-2.294-3.22-3.7-6.031-3.7-3.293 0-5.365 1.517-6.253 3.663v-3.219h-2.664v18.944zM1618.136 526.024v-9.25c1.147 1.924 3.367 3.256 6.327 3.256 4.773 0 7.844-3.552 7.844-8.473v-2.886c0-4.81-2.85-8.473-7.918-8.473-3.145 0-5.587 1.665-6.401 3.404v-2.96h-2.664v25.382h2.812zm11.359-14.578c0 3.478-1.961 6.29-5.55 6.29-3.145 0-5.81-2.405-5.81-6.29v-2.442c0-3.663 2.036-6.512 5.773-6.512 3.922 0 5.587 2.812 5.587 6.29v2.664zM1637.569 492.577h2.812v27.01h-2.812zM1653.99 520.03c3.96 0 7.105-2.405 7.734-5.809h-2.516c-.63 2.146-2.368 3.663-5.217 3.663-3.96 0-5.661-2.664-5.661-5.957v-.666h13.579v-2.812c0-4.662-2.627-8.25-8.03-8.25-5.327 0-8.25 3.404-8.25 8.547v3.034c0 5.106 3.44 8.25 8.362 8.25zm-5.66-11.507c0-3.478 1.48-6.179 5.55-6.179 3.7 0 5.402 2.516 5.402 5.883v.888h-10.952v-.592zM1676.009 519.587v-2.294h-1.887c-2.11 0-2.812-.814-2.812-2.738v-11.618h4.847v-2.295h-4.847v-5.439h-2.812v5.44h-3.22v2.294h3.22v11.617c0 3.22 1.517 5.032 5.143 5.032h2.368zM1688 520.03c3.96 0 7.105-2.405 7.734-5.809h-2.516c-.63 2.146-2.368 3.663-5.217 3.663-3.96 0-5.661-2.664-5.661-5.957v-.666h13.579v-2.812c0-4.662-2.627-8.25-8.03-8.25-5.327 0-8.25 3.404-8.25 8.547v3.034c0 5.106 3.44 8.25 8.362 8.25zm-5.66-11.507c0-3.478 1.48-6.179 5.55-6.179 3.7 0 5.402 2.516 5.402 5.883v.888h-10.952v-.592zM1714.3 492.577v10.878c-1.147-1.924-3.367-3.256-6.327-3.256-4.773 0-7.844 3.551-7.844 8.472v2.886c0 4.736 2.923 8.473 7.918 8.473 3.145 0 5.587-1.665 6.4-3.404v2.96h2.665v-27.01h-2.812zm-11.36 16.206c0-3.478 1.962-6.29 5.55-6.29 3.146 0 5.81 2.405 5.81 6.29v2.442c0 3.663-2.035 6.512-5.772 6.512-3.922 0-5.587-2.812-5.587-6.29v-2.665z" fill="#0d122b" fill-rule="nonzero"/></g><g><path d="M1293.53 330.687h-2.776l-4.884 22.052-6.66-22.052h-2.886l-6.66 22.052-4.884-22.052h-2.775l6.142 25.9h2.775l6.845-22.755 6.845 22.755h2.775l6.142-25.9zM1297.377 356.587h2.812V347.3c0-4.773 2.294-7.141 5.883-7.141h.555v-2.627h-.444c-3.44 0-5.476 1.554-6.179 4.477v-4.367h-2.627v18.944zM1324.867 356.587v-12.58c0-3.737-2.812-6.808-7.51-6.808-3.738 0-6.402 1.924-7.364 5.069h2.59c.777-1.74 2.331-2.85 4.736-2.85 3.034 0 4.736 1.999 4.736 4.589v3.515c-1.073-1.11-3.07-2.368-6.068-2.368-4.514 0-7.51 2.257-7.51 5.92 0 3.44 2.7 5.957 7.177 5.957 3.145 0 5.698-1.48 6.512-2.812v2.368h2.701zm-8.62-1.37c-2.924 0-5.107-1.48-5.107-4.107 0-2.627 2.11-4.107 5.254-4.107 2.85 0 5.661 1.665 5.661 4.033 0 2.442-2.849 4.181-5.809 4.181zM1333.45 363.024v-9.25c1.146 1.924 3.366 3.256 6.326 3.256 4.773 0 7.844-3.552 7.844-8.473v-2.886c0-4.81-2.849-8.473-7.918-8.473-3.145 0-5.587 1.665-6.4 3.404v-2.96h-2.665v25.382h2.812zm11.358-14.578c0 3.478-1.96 6.29-5.55 6.29-3.145 0-5.809-2.404-5.809-6.29v-2.442c0-3.663 2.035-6.512 5.772-6.512 3.922 0 5.587 2.812 5.587 6.29v2.665zM1355.5 363.024v-9.25c1.146 1.924 3.366 3.256 6.326 3.256 4.773 0 7.844-3.552 7.844-8.473v-2.886c0-4.81-2.849-8.473-7.918-8.473-3.145 0-5.587 1.665-6.4 3.404v-2.96h-2.665v25.382h2.812zm11.358-14.578c0 3.478-1.96 6.29-5.55 6.29-3.145 0-5.809-2.404-5.809-6.29v-2.442c0-3.663 2.035-6.512 5.772-6.512 3.922 0 5.587 2.812 5.587 6.29v2.665zM1374.922 356.587h2.812v-18.944h-2.812v18.944zm-.37-23.94c0 1 .703 1.702 1.776 1.702s1.776-.703 1.776-1.702-.703-1.702-1.776-1.702-1.776.703-1.776 1.702zM1383.917 356.587h2.812V345.45c0-3.922 2.368-5.81 5.476-5.81 3.404 0 4.847 2.183 4.847 5.402v11.544h2.812v-11.95c0-4.552-2.7-7.438-6.956-7.438-3.293 0-5.439 1.517-6.327 3.663v-3.219h-2.664v18.944zM1413.3 363.469c4.81 0 8.361-2.96 8.361-6.882v-18.944h-2.7v3.145c-.778-1.666-2.887-3.59-6.439-3.59-4.995 0-7.77 3.441-7.77 7.733v3.145c0 4.218 2.812 7.733 7.733 7.733 3.182 0 5.772-1.85 6.364-3.589v4.292c0 2.886-2.257 4.736-5.55 4.736-2.59 0-4.403-.814-5.439-2.627h-2.775c1.036 3.108 4.44 4.847 8.214 4.847zm-.26-9.953c-3.626 0-5.513-2.11-5.513-5.661v-2.701c0-3.626 1.924-5.661 5.624-5.661 3.256 0 5.698 2.627 5.698 5.846v2.442c0 3.589-2.59 5.735-5.809 5.735z" fill="#0d122b" fill-rule="nonzero"/></g><g><path d="M676.941 520.105c5.994 0 9.805-4.181 10.212-9.065h-2.775c-.444 3.552-2.812 6.66-7.474 6.66-5.29 0-7.844-3.7-7.844-8.77v-4.587c0-5.07 2.553-8.77 7.844-8.77 4.662 0 7.03 3.109 7.474 6.66h2.775c-.407-4.883-4.218-9.064-10.212-9.064-7.14 0-10.767 4.847-10.767 11.285v4.366c0 6.438 3.626 11.285 10.767 11.285zM707.948 519.587v-12.58c0-3.737-2.812-6.808-7.51-6.808-3.738 0-6.402 1.924-7.364 5.069h2.59c.777-1.74 2.331-2.85 4.736-2.85 3.034 0 4.736 1.999 4.736 4.589v3.515c-1.073-1.11-3.07-2.368-6.068-2.368-4.514 0-7.51 2.257-7.51 5.92 0 3.44 2.7 5.957 7.177 5.957 3.145 0 5.698-1.48 6.512-2.812v2.368h2.701zm-8.62-1.37c-2.924 0-5.107-1.48-5.107-4.107 0-2.627 2.11-4.107 5.254-4.107 2.85 0 5.661 1.665 5.661 4.033 0 2.442-2.849 4.181-5.809 4.181zM713.72 519.587h2.812V508.45c0-3.922 2.368-5.81 5.476-5.81 3.404 0 4.847 2.183 4.847 5.402v11.544h2.812v-11.95c0-4.552-2.7-7.438-6.956-7.438-3.293 0-5.439 1.517-6.327 3.663v-3.219h-2.664v18.944zM742.95 520.03c4.772 0 7.88-3.108 8.102-7.104h-2.516c-.37 2.553-1.96 4.884-5.55 4.884-3.885 0-5.698-2.516-5.698-6.068v-3.256c0-3.552 1.813-6.068 5.698-6.068 3.59 0 5.18 2.331 5.55 4.884h2.516c-.222-3.996-3.33-7.104-8.103-7.104-5.254 0-8.399 3.553-8.399 8.326v3.182c0 4.773 3.145 8.325 8.4 8.325zM763.633 520.03c3.96 0 7.104-2.405 7.733-5.809h-2.516c-.629 2.146-2.368 3.663-5.217 3.663-3.959 0-5.66-2.664-5.66-5.957v-.666h13.578v-2.812c0-4.662-2.627-8.25-8.029-8.25-5.328 0-8.25 3.404-8.25 8.547v3.034c0 5.106 3.44 8.25 8.361 8.25zm-5.66-11.507c0-3.478 1.48-6.179 5.55-6.179 3.7 0 5.401 2.516 5.401 5.883v.888h-10.952v-.592zM776.88 492.577h2.811v27.01h-2.812zM793.307 520.03c3.96 0 7.104-2.405 7.733-5.809h-2.516c-.629 2.146-2.368 3.663-5.217 3.663-3.959 0-5.66-2.664-5.66-5.957v-.666h13.578v-2.812c0-4.662-2.627-8.25-8.029-8.25-5.328 0-8.25 3.404-8.25 8.547v3.034c0 5.106 3.44 8.25 8.361 8.25zm-5.66-11.507c0-3.478 1.48-6.179 5.55-6.179 3.7 0 5.401 2.516 5.401 5.883v.888h-10.952v-.592zM819.614 492.577v10.878c-1.147-1.924-3.367-3.256-6.327-3.256-4.773 0-7.844 3.551-7.844 8.472v2.886c0 4.736 2.923 8.473 7.918 8.473 3.145 0 5.587-1.665 6.401-3.404v2.96h2.664v-27.01h-2.812zm-11.359 16.206c0-3.478 1.961-6.29 5.55-6.29 3.145 0 5.81 2.405 5.81 6.29v2.442c0 3.663-2.036 6.512-5.773 6.512-3.922 0-5.587-2.812-5.587-6.29v-2.665z" fill="#0d122b" fill-rule="nonzero"/></g><g><path d="M605.5 53.587h1.56v-5.12h4.32l2.84 5.12H616l-3.04-5.36c1.9-.6 3.02-2.24 3.02-4.18 0-2.48-1.62-4.46-4.7-4.46h-5.78v14zm1.56-6.36v-6.38h4.02c2.18 0 3.34 1.38 3.34 3.2 0 1.82-1.1 3.18-3.34 3.18h-4.02zM622.68 53.827c2.14 0 3.84-1.3 4.18-3.14h-1.36c-.34 1.16-1.28 1.98-2.82 1.98-2.14 0-3.06-1.44-3.06-3.22v-.36h7.34v-1.52c0-2.52-1.42-4.46-4.34-4.46-2.88 0-4.46 1.84-4.46 4.62v1.64c0 2.76 1.86 4.46 4.52 4.46zm-3.06-6.22c0-1.88.8-3.34 3-3.34 2 0 2.92 1.36 2.92 3.18v.48h-5.92v-.32zM633.5 53.827c2.4 0 4.16-1.32 4.16-3.14 0-1.48-.94-2.26-2.52-2.64l-3.14-.74c-.74-.18-1.08-.62-1.08-1.32 0-1.14 1.04-1.74 2.46-1.74 1.52 0 2.44.84 2.44 2.1v.06h1.38v-.1c0-1.9-1.66-3.2-3.8-3.2-2.26 0-3.88 1-3.88 2.92 0 1.34.88 2.26 2.4 2.6l3.04.7c.82.18 1.28.7 1.28 1.42 0 1.32-1.14 1.94-2.72 1.94-1.68 0-2.88-.84-2.88-2.12v-.06h-1.38v.1c0 1.98 1.76 3.22 4.24 3.22zM644.28 53.827c2.14 0 3.84-1.3 4.18-3.14h-1.36c-.34 1.16-1.28 1.98-2.82 1.98-2.14 0-3.06-1.44-3.06-3.22v-.36h7.34v-1.52c0-2.52-1.42-4.46-4.34-4.46-2.88 0-4.46 1.84-4.46 4.62v1.64c0 2.76 1.86 4.46 4.52 4.46zm-3.06-6.22c0-1.88.8-3.34 3-3.34 2 0 2.92 1.36 2.92 3.18v.48h-5.92v-.32zM651.34 53.587h1.52v-5.02c0-2.58 1.24-3.86 3.18-3.86h.3v-1.42h-.24c-1.86 0-2.96.84-3.34 2.42v-2.36h-1.42v10.24zM666.86 43.346h-1.5l-3.06 8.72-3.06-8.72h-1.5l3.76 10.24h1.6l3.76-10.24zM676.76 53.587v-6.8c0-2.02-1.52-3.68-4.06-3.68-2.02 0-3.46 1.04-3.98 2.74h1.4c.42-.94 1.26-1.54 2.56-1.54 1.64 0 2.56 1.08 2.56 2.48v1.9c-.58-.6-1.66-1.28-3.28-1.28-2.44 0-4.06 1.22-4.06 3.2 0 1.86 1.46 3.22 3.88 3.22 1.7 0 3.08-.8 3.52-1.52v1.28h1.46zm-4.66-.74c-1.58 0-2.76-.8-2.76-2.22 0-1.42 1.14-2.22 2.84-2.22 1.54 0 3.06.9 3.06 2.18 0 1.32-1.54 2.26-3.14 2.26zM684.64 53.587v-1.24h-1.02c-1.14 0-1.52-.44-1.52-1.48v-6.28h2.62v-1.24h-2.62v-2.94h-1.52v2.94h-1.74v1.24h1.74v6.28c0 1.74.82 2.72 2.78 2.72h1.28zM687.3 53.587h1.52v-10.24h-1.52v10.24zm-.2-12.94c0 .54.38.92.96.92s.96-.38.96-.92-.38-.92-.96-.92-.96.38-.96.92zM696.24 53.827c2.9 0 4.56-2 4.56-4.52v-1.68c0-2.52-1.66-4.52-4.56-4.52-2.9 0-4.58 2-4.58 4.52v1.68c0 2.52 1.66 4.52 4.58 4.52zm3.1-6.18v1.64c0 1.94-1.08 3.32-3.1 3.32s-3.1-1.38-3.1-3.32v-1.64c0-1.94 1.08-3.32 3.1-3.32s3.1 1.38 3.1 3.32zM703.54 53.587h1.52v-6.02c0-2.12 1.28-3.14 2.96-3.14 1.84 0 2.62 1.18 2.62 2.92v6.24h1.52v-6.46c0-2.46-1.46-4.02-3.76-4.02-1.78 0-2.94.82-3.42 1.98v-1.74h-1.44v10.24zM722.92 53.587h1.56v-12.7h4.28v-1.3h-10.12v1.3h4.28v12.7zM730.9 53.587h1.52v-10.24h-1.52v10.24zm-.2-12.94c0 .54.38.92.96.92s.96-.38.96-.92-.38-.92-.96-.92-.96.38-.96.92zM735.76 53.587h1.52v-6.02c0-2.12 1.24-3.14 2.92-3.14s2.54 1.18 2.54 2.92v6.24h1.52v-6.02c0-2.12 1.24-3.14 2.92-3.14s2.54 1.18 2.54 2.92v6.24h1.52v-6.46c0-2.42-1.44-4.02-3.68-4.02-1.78 0-3.02.8-3.72 2-.58-1.24-1.74-2-3.26-2-1.78 0-2.9.82-3.38 1.98v-1.74h-1.44v10.24zM758.4 53.827c2.14 0 3.84-1.3 4.18-3.14h-1.36c-.34 1.16-1.28 1.98-2.82 1.98-2.14 0-3.06-1.44-3.06-3.22v-.36h7.34v-1.52c0-2.52-1.42-4.46-4.34-4.46-2.88 0-4.46 1.84-4.46 4.62v1.64c0 2.76 1.86 4.46 4.52 4.46zm-3.06-6.22c0-1.88.8-3.34 3-3.34 2 0 2.92 1.36 2.92 3.18v.48h-5.92v-.32zM769.54 53.827c2.9 0 4.56-2 4.56-4.52v-1.68c0-2.52-1.66-4.52-4.56-4.52-2.9 0-4.58 2-4.58 4.52v1.68c0 2.52 1.66 4.52 4.58 4.52zm3.1-6.18v1.64c0 1.94-1.08 3.32-3.1 3.32s-3.1-1.38-3.1-3.32v-1.64c0-1.94 1.08-3.32 3.1-3.32s3.1 1.38 3.1 3.32zM785.26 43.346h-1.52v6.02c0 2.12-1.28 3.18-2.96 3.18-1.76 0-2.52-1.22-2.52-2.96v-6.24h-1.52v6.46c0 2.46 1.42 4.02 3.66 4.02 1.78 0 2.94-.82 3.42-1.98v1.74h1.44v-10.24zM793.4 53.587v-1.24h-1.02c-1.14 0-1.52-.44-1.52-1.48v-6.28h2.62v-1.24h-2.62v-2.94h-1.52v2.94h-1.74v1.24h1.74v6.28c0 1.74.82 2.72 2.78 2.72h1.28zM794.9 55.687h1.42l5.64-17.1h-1.42l-5.64 17.1zM804.48 53.587h1.56v-5.12h4.32l2.84 5.12h1.78l-3.04-5.36c1.9-.6 3.02-2.24 3.02-4.18 0-2.48-1.62-4.46-4.7-4.46h-5.78v14zm1.56-6.36v-6.38h4.02c2.18 0 3.34 1.38 3.34 3.2 0 1.82-1.1 3.18-3.34 3.18h-4.02zM821.66 53.827c2.14 0 3.84-1.3 4.18-3.14h-1.36c-.34 1.16-1.28 1.98-2.82 1.98-2.14 0-3.06-1.44-3.06-3.22v-.36h7.34v-1.52c0-2.52-1.42-4.46-4.34-4.46-2.88 0-4.46 1.84-4.46 4.62v1.64c0 2.76 1.86 4.46 4.52 4.46zm-3.06-6.22c0-1.88.8-3.34 3-3.34 2 0 2.92 1.36 2.92 3.18v.48h-5.92v-.32zM830.34 43.346h-1.52v11.26c0 .92-.42 1.24-1.36 1.24h-.54v1.22h.98c1.58 0 2.44-.86 2.44-2.36v-11.36zm-1.72-2.7c0 .54.38.92.96.92s.96-.38.96-.92-.38-.92-.96-.92-.96.38-.96.92zM837.7 53.827c2.14 0 3.84-1.3 4.18-3.14h-1.36c-.34 1.16-1.28 1.98-2.82 1.98-2.14 0-3.06-1.44-3.06-3.22v-.36h7.34v-1.52c0-2.52-1.42-4.46-4.34-4.46-2.88 0-4.46 1.84-4.46 4.62v1.64c0 2.76 1.86 4.46 4.52 4.46zm-3.06-6.22c0-1.88.8-3.34 3-3.34 2 0 2.92 1.36 2.92 3.18v.48h-5.92v-.32zM848.8 53.827c2.58 0 4.26-1.68 4.38-3.84h-1.36c-.2 1.38-1.06 2.64-3 2.64-2.1 0-3.08-1.36-3.08-3.28v-1.76c0-1.92.98-3.28 3.08-3.28 1.94 0 2.8 1.26 3 2.64h1.36c-.12-2.16-1.8-3.84-4.38-3.84-2.84 0-4.54 1.92-4.54 4.5v1.72c0 2.58 1.7 4.5 4.54 4.5zM860.78 53.587v-1.24h-1.02c-1.14 0-1.52-.44-1.52-1.48v-6.28h2.62v-1.24h-2.62v-2.94h-1.52v2.94h-1.74v1.24h1.74v6.28c0 1.74.82 2.72 2.78 2.72h1.28zM867.26 53.827c2.14 0 3.84-1.3 4.18-3.14h-1.36c-.34 1.16-1.28 1.98-2.82 1.98-2.14 0-3.06-1.44-3.06-3.22v-.36h7.34v-1.52c0-2.52-1.42-4.46-4.34-4.46-2.88 0-4.46 1.84-4.46 4.62v1.64c0 2.76 1.86 4.46 4.52 4.46zm-3.06-6.22c0-1.88.8-3.34 3-3.34 2 0 2.92 1.36 2.92 3.18v.48h-5.92v-.32zM881.48 38.986v5.88c-.62-1.04-1.82-1.76-3.42-1.76-2.58 0-4.24 1.92-4.24 4.58v1.56c0 2.56 1.58 4.58 4.28 4.58 1.7 0 3.02-.9 3.46-1.84v1.6H883v-14.6h-1.52zm-6.14 8.76c0-1.88 1.06-3.4 3-3.4 1.7 0 3.14 1.3 3.14 3.4v1.32c0 1.98-1.1 3.52-3.12 3.52-2.12 0-3.02-1.52-3.02-3.4v-1.44z" fill="#0d122b" fill-rule="nonzero"/></g><g><path d="M640.734 391.587h1.56v-12.7h4.28v-1.3h-10.12v1.3h4.28v12.7zM655.114 391.587v-6.8c0-2.02-1.52-3.68-4.06-3.68-2.02 0-3.46 1.04-3.98 2.74h1.4c.42-.94 1.26-1.54 2.56-1.54 1.64 0 2.56 1.08 2.56 2.48v1.9c-.58-.6-1.66-1.28-3.28-1.28-2.44 0-4.06 1.22-4.06 3.2 0 1.86 1.46 3.22 3.88 3.22 1.7 0 3.08-.8 3.52-1.52v1.28h1.46zm-4.66-.74c-1.58 0-2.76-.8-2.76-2.22 0-1.42 1.14-2.22 2.84-2.22 1.54 0 3.06.9 3.06 2.18 0 1.32-1.54 2.26-3.14 2.26zM661.994 391.827c2.4 0 4.16-1.32 4.16-3.14 0-1.48-.94-2.26-2.52-2.64l-3.14-.74c-.74-.18-1.08-.62-1.08-1.32 0-1.14 1.04-1.74 2.46-1.74 1.52 0 2.44.84 2.44 2.1v.06h1.38v-.1c0-1.9-1.66-3.2-3.8-3.2-2.26 0-3.88 1-3.88 2.92 0 1.34.88 2.26 2.4 2.6l3.04.7c.82.18 1.28.7 1.28 1.42 0 1.32-1.14 1.94-2.72 1.94-1.68 0-2.88-.84-2.88-2.12v-.06h-1.38v.1c0 1.98 1.76 3.22 4.24 3.22zM668.754 391.587h1.52v-5.16l4.62 5.16h1.9l-4.88-5.3 4.68-4.94h-1.9l-4.42 4.82v-9.18h-1.52v14.6zM686.634 391.587h1.56v-12.7h4.28v-1.3h-10.12v1.3h4.28v12.7zM694.614 391.587h1.52v-10.24h-1.52v10.24zm-.2-12.94c0 .54.38.92.96.92s.96-.38.96-.92-.38-.92-.96-.92-.96.38-.96.92zM699.474 391.587h1.52v-6.02c0-2.12 1.24-3.14 2.92-3.14s2.54 1.18 2.54 2.92v6.24h1.52v-6.02c0-2.12 1.24-3.14 2.92-3.14s2.54 1.18 2.54 2.92v6.24h1.52v-6.46c0-2.42-1.44-4.02-3.68-4.02-1.78 0-3.02.8-3.72 2-.58-1.24-1.74-2-3.26-2-1.78 0-2.9.82-3.38 1.98v-1.74h-1.44v10.24zM722.114 391.827c2.14 0 3.84-1.3 4.18-3.14h-1.36c-.34 1.16-1.28 1.98-2.82 1.98-2.14 0-3.06-1.44-3.06-3.22v-.36h7.34v-1.52c0-2.52-1.42-4.46-4.34-4.46-2.88 0-4.46 1.84-4.46 4.62v1.64c0 2.76 1.86 4.46 4.52 4.46zm-3.06-6.22c0-1.88.8-3.34 3-3.34 2 0 2.92 1.36 2.92 3.18v.48h-5.92v-.32zM733.254 391.827c2.9 0 4.56-2 4.56-4.52v-1.68c0-2.52-1.66-4.52-4.56-4.52-2.9 0-4.58 2-4.58 4.52v1.68c0 2.52 1.66 4.52 4.58 4.52zm3.1-6.18v1.64c0 1.94-1.08 3.32-3.1 3.32s-3.1-1.38-3.1-3.32v-1.64c0-1.94 1.08-3.32 3.1-3.32s3.1 1.38 3.1 3.32zM748.974 381.346h-1.52v6.02c0 2.12-1.28 3.18-2.96 3.18-1.76 0-2.52-1.22-2.52-2.96v-6.24h-1.52v6.46c0 2.46 1.42 4.02 3.66 4.02 1.78 0 2.94-.82 3.42-1.98v1.74h1.44v-10.24zM757.114 391.587v-1.24h-1.02c-1.14 0-1.52-.44-1.52-1.48v-6.28h2.62v-1.24h-2.62v-2.94h-1.52v2.94h-1.74v1.24h1.74v6.28c0 1.74.82 2.72 2.78 2.72h1.28zM758.614 393.687h1.42l5.64-17.1h-1.42l-5.64 17.1zM772.854 391.866c3.24 0 5.3-2.26 5.52-4.9h-1.5c-.24 1.92-1.52 3.6-4.04 3.6-2.86 0-4.24-2-4.24-4.74v-2.48c0-2.74 1.38-4.74 4.24-4.74 2.52 0 3.8 1.68 4.04 3.6h1.5c-.22-2.64-2.28-4.9-5.52-4.9-3.86 0-5.82 2.62-5.82 6.1v2.36c0 3.48 1.96 6.1 5.82 6.1zM789.614 391.587v-6.8c0-2.02-1.52-3.68-4.06-3.68-2.02 0-3.46 1.04-3.98 2.74h1.4c.42-.94 1.26-1.54 2.56-1.54 1.64 0 2.56 1.08 2.56 2.48v1.9c-.58-.6-1.66-1.28-3.28-1.28-2.44 0-4.06 1.22-4.06 3.2 0 1.86 1.46 3.22 3.88 3.22 1.7 0 3.08-.8 3.52-1.52v1.28h1.46zm-4.66-.74c-1.58 0-2.76-.8-2.76-2.22 0-1.42 1.14-2.22 2.84-2.22 1.54 0 3.06.9 3.06 2.18 0 1.32-1.54 2.26-3.14 2.26zM792.734 391.587h1.52v-6.02c0-2.12 1.28-3.14 2.96-3.14 1.84 0 2.62 1.18 2.62 2.92v6.24h1.52v-6.46c0-2.46-1.46-4.02-3.76-4.02-1.78 0-2.94.82-3.42 1.98v-1.74h-1.44v10.24zM808.534 391.827c2.58 0 4.26-1.68 4.38-3.84h-1.36c-.2 1.38-1.06 2.64-3 2.64-2.1 0-3.08-1.36-3.08-3.28v-1.76c0-1.92.98-3.28 3.08-3.28 1.94 0 2.8 1.26 3 2.64h1.36c-.12-2.16-1.8-3.84-4.38-3.84-2.84 0-4.54 1.92-4.54 4.5v1.72c0 2.58 1.7 4.5 4.54 4.5zM819.714 391.827c2.14 0 3.84-1.3 4.18-3.14h-1.36c-.34 1.16-1.28 1.98-2.82 1.98-2.14 0-3.06-1.44-3.06-3.22v-.36h7.34v-1.52c0-2.52-1.42-4.46-4.34-4.46-2.88 0-4.46 1.84-4.46 4.62v1.64c0 2.76 1.86 4.46 4.52 4.46zm-3.06-6.22c0-1.88.8-3.34 3-3.34 2 0 2.92 1.36 2.92 3.18v.48h-5.92v-.32zM826.874 376.986h1.52v14.6h-1.52zM835.754 391.827c2.14 0 3.84-1.3 4.18-3.14h-1.36c-.34 1.16-1.28 1.98-2.82 1.98-2.14 0-3.06-1.44-3.06-3.22v-.36h7.34v-1.52c0-2.52-1.42-4.46-4.34-4.46-2.88 0-4.46 1.84-4.46 4.62v1.64c0 2.76 1.86 4.46 4.52 4.46zm-3.06-6.22c0-1.88.8-3.34 3-3.34 2 0 2.92 1.36 2.92 3.18v.48h-5.92v-.32zM849.974 376.986v5.88c-.62-1.04-1.82-1.76-3.42-1.76-2.58 0-4.24 1.92-4.24 4.58v1.56c0 2.56 1.58 4.58 4.28 4.58 1.7 0 3.02-.9 3.46-1.84v1.6h1.44v-14.6h-1.52zm-6.14 8.76c0-1.88 1.06-3.4 3-3.4 1.7 0 3.14 1.3 3.14 3.4v1.32c0 1.98-1.1 3.52-3.12 3.52-2.12 0-3.02-1.52-3.02-3.4v-1.44z" fill="#0d122b" fill-rule="nonzero"/></g><g><path d="M1022.98 566.006c4.38 0 7.56-3.09 7.56-7.11 0-3.9-2.85-6.93-6.81-6.93-2.07 0-3.96.87-4.92 2.04l1.32-7.53h8.64v-1.89h-10.47l-1.98 11.73h2.19c.99-1.35 2.58-2.46 4.77-2.46 2.97 0 5.01 2.28 5.01 5.1 0 2.97-2.07 5.16-5.31 5.16-2.64 0-4.32-1.53-4.92-3.69h-2.19c.66 3.54 3.63 5.58 7.11 5.58zM1042.03 565.587h2.28v-9.03c0-3.18 1.86-4.71 4.38-4.71 2.52 0 3.81 1.77 3.81 4.38v9.36h2.28v-9.03c0-3.18 1.86-4.71 4.38-4.71 2.52 0 3.81 1.77 3.81 4.38v9.36h2.28v-9.69c0-3.63-2.16-6.03-5.52-6.03-2.67 0-4.53 1.2-5.58 3-.87-1.86-2.61-3-4.89-3-2.67 0-4.35 1.23-5.07 2.97v-2.61h-2.16v15.36zM1070.11 565.587h2.28v-15.36h-2.28v15.36zm-.3-19.41c0 .81.57 1.38 1.44 1.38s1.44-.57 1.44-1.38c0-.81-.57-1.38-1.44-1.38s-1.44.57-1.44 1.38zM1077.4 565.587h2.28v-9.03c0-3.18 1.92-4.71 4.44-4.71 2.76 0 3.93 1.77 3.93 4.38v9.36h2.28v-9.69c0-3.69-2.19-6.03-5.64-6.03-2.67 0-4.41 1.23-5.13 2.97v-2.61h-2.16v15.36zM1107.67 550.226h-2.28v9.03c0 3.18-1.92 4.77-4.44 4.77-2.64 0-3.78-1.83-3.78-4.44v-9.36h-2.28v9.69c0 3.69 2.13 6.03 5.49 6.03 2.67 0 4.41-1.23 5.13-2.97v2.61h2.16v-15.36zM1119.88 565.587v-1.86h-1.53c-1.71 0-2.28-.66-2.28-2.22v-9.42h3.93v-1.86h-3.93v-4.41h-2.28v4.41h-2.61v1.86h2.61v9.42c0 2.61 1.23 4.08 4.17 4.08h1.92zM1129.6 565.947c3.21 0 5.76-1.95 6.27-4.71h-2.04c-.51 1.74-1.92 2.97-4.23 2.97-3.21 0-4.59-2.16-4.59-4.83v-.54h11.01v-2.28c0-3.78-2.13-6.69-6.51-6.69-4.32 0-6.69 2.76-6.69 6.93v2.46c0 4.14 2.79 6.69 6.78 6.69zm-4.59-9.33c0-2.82 1.2-5.01 4.5-5.01 3 0 4.38 2.04 4.38 4.77v.72h-8.88v-.48zM1145.83 565.947c3.6 0 6.24-1.98 6.24-4.71 0-2.22-1.41-3.39-3.78-3.96l-4.71-1.11c-1.11-.27-1.62-.93-1.62-1.98 0-1.71 1.56-2.61 3.69-2.61 2.28 0 3.66 1.26 3.66 3.15v.09h2.07v-.15c0-2.85-2.49-4.8-5.7-4.8-3.39 0-5.82 1.5-5.82 4.38 0 2.01 1.32 3.39 3.6 3.9l4.56 1.05c1.23.27 1.92 1.05 1.92 2.13 0 1.98-1.71 2.91-4.08 2.91-2.52 0-4.32-1.26-4.32-3.18v-.09h-2.07v.15c0 2.97 2.64 4.83 6.36 4.83zM1155.43 564.297c0 .87.66 1.47 1.53 1.47s1.53-.6 1.53-1.47-.63-1.47-1.53-1.47-1.53.6-1.53 1.47zm0-9.93c0 .87.66 1.47 1.53 1.47s1.53-.6 1.53-1.47-.63-1.47-1.53-1.47-1.53.6-1.53 1.47zM1174.39 565.587h2.34v-19.05h6.42v-1.95h-15.18v1.95h6.42v19.05zM1195.96 565.587v-10.2c0-3.03-2.28-5.52-6.09-5.52-3.03 0-5.19 1.56-5.97 4.11h2.1c.63-1.41 1.89-2.31 3.84-2.31 2.46 0 3.84 1.62 3.84 3.72v2.85c-.87-.9-2.49-1.92-4.92-1.92-3.66 0-6.09 1.83-6.09 4.8 0 2.79 2.19 4.83 5.82 4.83 2.55 0 4.62-1.2 5.28-2.28v1.92h2.19zm-6.99-1.11c-2.37 0-4.14-1.2-4.14-3.33s1.71-3.33 4.26-3.33c2.31 0 4.59 1.35 4.59 3.27 0 1.98-2.31 3.39-4.71 3.39zM1206.28 565.947c3.6 0 6.24-1.98 6.24-4.71 0-2.22-1.41-3.39-3.78-3.96l-4.71-1.11c-1.11-.27-1.62-.93-1.62-1.98 0-1.71 1.56-2.61 3.69-2.61 2.28 0 3.66 1.26 3.66 3.15v.09h2.07v-.15c0-2.85-2.49-4.8-5.7-4.8-3.39 0-5.82 1.5-5.82 4.38 0 2.01 1.32 3.39 3.6 3.9l4.56 1.05c1.23.27 1.92 1.05 1.92 2.13 0 1.98-1.71 2.91-4.08 2.91-2.52 0-4.32-1.26-4.32-3.18v-.09h-2.07v.15c0 2.97 2.64 4.83 6.36 4.83zM1216.42 565.587h2.28v-7.74l6.93 7.74h2.85l-7.32-7.95 7.02-7.41h-2.85l-6.63 7.23v-13.77h-2.28v21.9zM1239.31 544.587v21h7.89c5.34 0 8.28-3.39 8.28-8.07v-4.86c0-4.68-2.94-8.07-8.28-8.07h-7.89zm7.56 19.08h-5.25v-17.16h5.25c4.14 0 6.3 2.49 6.3 6.15v4.86c0 3.66-2.16 6.15-6.3 6.15zM1266.01 565.947c3.21 0 5.76-1.95 6.27-4.71h-2.04c-.51 1.74-1.92 2.97-4.23 2.97-3.21 0-4.59-2.16-4.59-4.83v-.54h11.01v-2.28c0-3.78-2.13-6.69-6.51-6.69-4.32 0-6.69 2.76-6.69 6.93v2.46c0 4.14 2.79 6.69 6.78 6.69zm-4.59-9.33c0-2.82 1.2-5.01 4.5-5.01 3 0 4.38 2.04 4.38 4.77v.72h-8.88v-.48zM1276.75 543.687h2.28v21.9h-2.28zM1290.07 565.947c3.21 0 5.76-1.95 6.27-4.71h-2.04c-.51 1.74-1.92 2.97-4.23 2.97-3.21 0-4.59-2.16-4.59-4.83v-.54h11.01v-2.28c0-3.78-2.13-6.69-6.51-6.69-4.32 0-6.69 2.76-6.69 6.93v2.46c0 4.14 2.79 6.69 6.78 6.69zm-4.59-9.33c0-2.82 1.2-5.01 4.5-5.01 3 0 4.38 2.04 4.38 4.77v.72h-8.88v-.48zM1307.92 565.587v-1.86h-1.53c-1.71 0-2.28-.66-2.28-2.22v-9.42h3.93v-1.86h-3.93v-4.41h-2.28v4.41h-2.61v1.86h2.61v9.42c0 2.61 1.23 4.08 4.17 4.08h1.92zM1317.64 565.947c3.21 0 5.76-1.95 6.27-4.71h-2.04c-.51 1.74-1.92 2.97-4.23 2.97-3.21 0-4.59-2.16-4.59-4.83v-.54h11.01v-2.28c0-3.78-2.13-6.69-6.51-6.69-4.32 0-6.69 2.76-6.69 6.93v2.46c0 4.14 2.79 6.69 6.78 6.69zm-4.59-9.33c0-2.82 1.2-5.01 4.5-5.01 3 0 4.38 2.04 4.38 4.77v.72h-8.88v-.48zM1338.97 543.687v8.82c-.93-1.56-2.73-2.64-5.13-2.64-3.87 0-6.36 2.88-6.36 6.87v2.34c0 3.84 2.37 6.87 6.42 6.87 2.55 0 4.53-1.35 5.19-2.76v2.4h2.16v-21.9h-2.28zm-9.21 13.14c0-2.82 1.59-5.1 4.5-5.1 2.55 0 4.71 1.95 4.71 5.1v1.98c0 2.97-1.65 5.28-4.68 5.28-3.18 0-4.53-2.28-4.53-5.1v-2.16z" fill="#565b73" fill-rule="nonzero"/></g></svg>